<svg xmlns="http://www.w3.org/2000/svg" viewBox="0 0 880 282" font-family="system-ui,sans-serif">
<rect width="880" height="282" fill="#fcfcfb"/>
<style>.t{font-size:14.5px;font-weight:600;fill:#0b0b0b}.a{font-size:11px;fill:#52514e}.g{font-size:10px;fill:#52514e}.m{font-size:11px;font-family:ui-monospace,monospace;fill:#0b0b0b}.mg{font-size:10px;font-family:ui-monospace,monospace;fill:#52514e}</style>
<defs><marker id="ah" viewBox="0 0 8 8" refX="7" refY="4" markerWidth="7" markerHeight="7" orient="auto-start-reverse"><path d="M0 0 L8 4 L0 8 z" fill="#52514e"/></marker><marker id="ahb" viewBox="0 0 8 8" refX="7" refY="4" markerWidth="7" markerHeight="7" orient="auto-start-reverse"><path d="M0 0 L8 4 L0 8 z" fill="#2a78d6"/></marker></defs>
<text x="60" y="34" class="g" text-anchor="start">wire</text>
<rect x="60" y="42" width="44" height="28" fill="#d9d8d5" stroke="#52514e" stroke-width="1" rx="3"/>
<text x="82" y="60" class="m" text-anchor="middle">tag</text>
<rect x="106" y="42" width="80" height="28" fill="#d9d8d5" stroke="#52514e" stroke-width="1" rx="3"/>
<text x="146" y="60" class="m" text-anchor="middle">len 190</text>
<rect x="188" y="42" width="560" height="28" fill="none" stroke="#52514e" stroke-width="1" rx="3"/>
<text x="468" y="60" class="m" text-anchor="middle">87 varints in 190 bytes</text>
<text x="60" y="118" class="a" text-anchor="start">baseline: grow as elements arrive</text>
<rect x="60" y="128" width="16" height="26" fill="none" stroke="#52514e" stroke-width="1" rx="3"/>
<text x="68.0" y="145" class="mg" text-anchor="middle">4</text>
<line x1="80" y1="141" x2="102" y2="141" stroke="#52514e" stroke-width="1.3" marker-end="url(#ah)"/>
<rect x="106" y="128" width="32" height="26" fill="none" stroke="#52514e" stroke-width="1" rx="3"/>
<text x="122.0" y="145" class="mg" text-anchor="middle">8</text>
<line x1="142" y1="141" x2="164" y2="141" stroke="#52514e" stroke-width="1.3" marker-end="url(#ah)"/>
<rect x="168" y="128" width="64" height="26" fill="none" stroke="#52514e" stroke-width="1" rx="3"/>
<text x="200.0" y="145" class="mg" text-anchor="middle">16</text>
<line x1="236" y1="141" x2="258" y2="141" stroke="#52514e" stroke-width="1.3" marker-end="url(#ah)"/>
<rect x="262" y="128" width="128" height="26" fill="none" stroke="#52514e" stroke-width="1" rx="3"/>
<text x="326.0" y="145" class="mg" text-anchor="middle">32</text>
<line x1="394" y1="141" x2="416" y2="141" stroke="#52514e" stroke-width="1.3" marker-end="url(#ah)"/>
<text x="424" y="145" class="a" text-anchor="start">&#8230; allocate &#215;2, copy everything, repeat</text>
<text x="60" y="208" class="a" text-anchor="start">step 2: len bounds the count - allocate 190 slots once, decode into place</text>
<rect x="188" y="218" width="560" height="28" fill="none" stroke="#52514e" stroke-width="1" rx="3"/>
<rect x="188" y="218" width="256" height="28" fill="#2a78d6" fill-opacity="0.25" stroke="none"/>
<line x1="444" y1="218" x2="444" y2="246" stroke="#52514e" stroke-width="1"/>
<text x="316.2105263157895" y="236" class="m" text-anchor="middle">87 decoded</text>
<text x="596.2105263157895" y="236" class="mg" text-anchor="middle">unused tail</text>
<text x="596.2105263157895" y="268" class="g" text-anchor="middle">returned to the arena: a pointer subtraction</text>
</svg>